HIERARCHY
ROOT hip
{
  OFFSET 0 0 0
  CHANNELS 6 Xposition Yposition Zposition Zrotation Yrotation Xrotation
  JOINT abdomen
  {
    OFFSET 0 20.6881 -0.73152
    CHANNELS 3 Zrotation Xrotation Yrotation
    JOINT chest
    {
      OFFSET 0 11.7043 -0.48768
      CHANNELS 3 Zrotation Xrotation Yrotation
      JOINT neck
      {
        OFFSET 0 22.1894 -2.19456
        CHANNELS 3 Zrotation Xrotation Yrotation
        JOINT head
        {
          OFFSET -0.24384 7.07133 1.2192
          CHANNELS 3 Zrotation Xrotation Yrotation
          JOINT leftEye
          {
            OFFSET 4.14528 8.04674 8.04672
            CHANNELS 3 Zrotation Xrotation Yrotation
            End Site
            {
              OFFSET 1 0 0
            }
          }
          JOINT rightEye
          {
            OFFSET -3.6576 8.04674 8.04672
            CHANNELS 3 Zrotation Xrotation Yrotation
            End Site
            {
              OFFSET 1 0 0
            }
          }
        }
      }
      JOINT rCollar
      {
        OFFSET -2.68224 19.2634 -4.8768
        CHANNELS 3 Zrotation Xrotation Yrotation
        JOINT rShldr
        {
          OFFSET -8.77824 -1.95073 1.46304
          CHANNELS 3 Zrotation Xrotation Yrotation
          JOINT rForeArm
          {
            OFFSET -28.1742 -1.7115 0.48768
            CHANNELS 3 Zrotation Xrotation Yrotation
            JOINT rHand
            {
              OFFSET -22.5879 0.773209 7.07136
              CHANNELS 3 Zrotation Xrotation Yrotation
              JOINT rThumb1
              {
                OFFSET -1.2192 -0.487915 3.41376
                CHANNELS 3 Zrotation Xrotation Yrotation
                JOINT rThumb2
                {
                  OFFSET -3.37035 -0.52449 3.41376
                  CHANNELS 3 Zrotation Xrotation Yrotation
                  End Site
                  {
                    OFFSET -1.78271 -1.18214 1.43049
                  }
                }
              }
              JOINT rIndex1
              {
                OFFSET -7.75947 0.938293 5.60832
                CHANNELS 3 Zrotation Xrotation Yrotation
                JOINT rIndex2
                {
                  OFFSET -2.54057 -0.884171 1.56538
                  CHANNELS 3 Zrotation Xrotation Yrotation
                  End Site
                  {
                    OFFSET -1.62519 -0.234802 1.16502
                  }
                }
              }
              JOINT rMid1
              {
                OFFSET -8.24714 1.18213 3.41376
                CHANNELS 3 Zrotation Xrotation Yrotation
                JOINT rMid2
                {
                  OFFSET -3.10165 -0.590103 1.0647
                  CHANNELS 3 Zrotation Xrotation Yrotation
                  End Site
                  {
                    OFFSET -2.48547 -0.328903 0.83742
                  }
                }
              }
              JOINT rRing1
              {
                OFFSET -8.82822 0.546677 1.51678
                CHANNELS 3 Zrotation Xrotation Yrotation
                JOINT rRing2
                {
                  OFFSET -2.60934 -0.819778 -0.0198488
                  CHANNELS 3 Zrotation Xrotation Yrotation
                  End Site
                  {
                    OFFSET -2.33842 -0.294052 0.168128
                  }
                }
              }
              JOINT rPinky1
              {
                OFFSET -8.27202 -0.0477905 -0.4584
                CHANNELS 3 Zrotation Xrotation Yrotation
                JOINT rPinky2
                {
                  OFFSET -1.82734 -0.647385 -0.700984
                  CHANNELS 3 Zrotation Xrotation Yrotation
                  End Site
                  {
                    OFFSET -1.69225 -0.51767 -0.607171
                  }
                }
              }
            }
          }
        }
      }
      JOINT lCollar
      {
        OFFSET 2.68224 19.2634 -4.8768
        CHANNELS 3 Zrotation Xrotation Yrotation
        JOINT lShldr
        {
          OFFSET 8.77824 -1.95073 1.46304
          CHANNELS 3 Zrotation Xrotation Yrotation
          JOINT lForeArm
          {
            OFFSET 28.1742 -1.7115 0.48768
            CHANNELS 3 Zrotation Xrotation Yrotation
            JOINT lHand
            {
              OFFSET 22.5879 0.773209 7.07136
              CHANNELS 3 Zrotation Xrotation Yrotation
              JOINT lThumb1
              {
                OFFSET 1.2192 -0.487915 3.41376
                CHANNELS 3 Zrotation Xrotation Yrotation
                JOINT lThumb2
                {
                  OFFSET 3.37035 -0.52449 3.41376
                  CHANNELS 3 Zrotation Xrotation Yrotation
                  End Site
                  {
                    OFFSET 1.78271 -1.18214 1.43049
                  }
                }
              }
              JOINT lIndex1
              {
                OFFSET 7.75947 0.938293 5.60832
                CHANNELS 3 Zrotation Xrotation Yrotation
                JOINT lIndex2
                {
                  OFFSET 2.54057 -0.884171 1.56538
                  CHANNELS 3 Zrotation Xrotation Yrotation
                  End Site
                  {
                    OFFSET 1.62519 -0.234802 1.16502
                  }
                }
              }
              JOINT lMid1
              {
                OFFSET 8.24714 1.18213 3.41376
                CHANNELS 3 Zrotation Xrotation Yrotation
                JOINT lMid2
                {
                  OFFSET 3.10165 -0.590103 1.0647
                  CHANNELS 3 Zrotation Xrotation Yrotation
                  End Site
                  {
                    OFFSET 2.48547 -0.328903 0.83742
                  }
                }
              }
              JOINT lRing1
              {
                OFFSET 8.82822 0.546677 1.51678
                CHANNELS 3 Zrotation Xrotation Yrotation
                JOINT lRing2
                {
                  OFFSET 2.60934 -0.819778 -0.0198488
                  CHANNELS 3 Zrotation Xrotation Yrotation
                  End Site
                  {
                    OFFSET 2.33842 -0.294052 0.168128
                  }
                }
              }
              JOINT lPinky1
              {
                OFFSET 8.27202 -0.0477905 -0.4584
                CHANNELS 3 Zrotation Xrotation Yrotation
                JOINT lPinky2
                {
                  OFFSET 1.82734 -0.647385 -0.700984
                  CHANNELS 3 Zrotation Xrotation Yrotation
                  End Site
                  {
                    OFFSET 1.69225 -0.51767 -0.607171
                  }
                }
              }
            }
          }
        }
      }
    }
  }
  JOINT rButtock
  {
    OFFSET -8.77824 4.35084 1.2192
    CHANNELS 3 Zrotation Xrotation Yrotation
    JOINT rThigh
    {
      OFFSET 0 -1.70687 -2.19456
      CHANNELS 3 Zrotation Xrotation Yrotation
      JOINT rShin
      {
        OFFSET 0 -36.8199 0.73152
        CHANNELS 3 Zrotation Xrotation Yrotation
        JOINT rFoot
        {
          OFFSET 0.73152 -45.1104 -5.12064
          CHANNELS 3 Zrotation Xrotation Yrotation
          End Site
          {
            OFFSET -1.1221 -3.69964 12.103
          }
        }
      }
    }
  }
  JOINT lButtock
  {
    OFFSET 8.77824 4.35084 1.2192
    CHANNELS 3 Zrotation Xrotation Yrotation
    JOINT lThigh
    {
      OFFSET 0 -1.70687 -2.19456
      CHANNELS 3 Zrotation Xrotation Yrotation
      JOINT lShin
      {
        OFFSET 0 -36.8199 0.73152
        CHANNELS 3 Zrotation Xrotation Yrotation
        JOINT lFoot
        {
          OFFSET -0.73152 -45.1104 -5.12064
          CHANNELS 3 Zrotation Xrotation Yrotation
          End Site
          {
            OFFSET 1.1221 -3.69964 12.103
          }
        }
      }
    }
  }
}
MOTION
Frames:	7
Frame Time:	0.00833333
-94.8226 150.412 -14.5074 -21.9845 -21.9095 332.091 4.58852 54.8918 23.8946 -9.02949 -2.00637 6.56321 22.945 30.1572 -8.41538 -5.98241 -0.962016 -9.15612 -0.0 0.0 0.0 -0.0 0.0 0.0 4.34495e-13 2.99323e-13 -3.43055e-13 12.8136 -43.1714 -7.99145 -28.432 -35.4573 76.1069 -1.02198 -27.4417 -4.18499 3.42342e-09 9.22233e-09 5.94534e-09 5.79627e-09 1.59876e-08 1.03282e-08 3.42342e-09 9.22234e-09 5.94532e-09 7.73091 5.47488 0.417314 3.42342e-09 9.22233e-09 5.94534e-09 2.90554 0.965183 0.102902 3.42343e-09 9.22233e-09 5.94533e-09 10.2786 0.731801 0.0259123 3.42342e-09 9.22233e-09 5.94534e-09 2.22167 -0.733487 -0.20892 4.34407e-13 2.99317e-13 -3.43303e-13 -38.2225 53.6914 16.0946 28.0783 -40.0138 -83.9254 2.15184 37.8483 -6.26976 2.79918e-09 -6.88166e-09 -9.04916e-10 4.82145e-09 -1.20867e-08 -1.64086e-09 2.79918e-09 -6.88166e-09 -9.04909e-10 -7.73091 5.47488 -0.417314 2.79919e-09 -6.88168e-09 -9.04916e-10 -2.90554 0.965183 -0.102902 2.79918e-09 -6.88166e-09 -9.04914e-10 -10.2786 0.731801 -0.0259123 2.79919e-09 -6.88166e-09 -9.04925e-10 -2.22167 -0.733487 0.20892 -2.03217e-16 0.0 -3.88251e-19 -12.6269 -57.2446 -8.47527 -175.399 73.9028 176.595 0.29885 20.1361 1.41372 2.03217e-16 0.0 3.88251e-19 32.6725 -53.3034 5.9632 171.881 83.0136 -174.108 0.0753774 14.2779 -9.28494
-95.0321 149.949 -14.8289 -23.199 -21.2456 333.583 5.18248 55.0848 23.1104 -8.81389 -1.99547 6.45 22.407 30.8516 -8.50153 -5.40872 -2.06077 -9.19392 -0.0 0.0 0.0 -0.0 0.0 0.0 2.92511e-13 1.7931e-13 -4.96163e-13 12.672 -43.2253 -7.5171 -28.4314 -35.4245 76.0541 -0.992574 -27.0838 -4.12108 2.57479e-09 8.62289e-09 5.40089e-09 4.34149e-09 1.49338e-08 9.37153e-09 2.5748e-09 8.6229e-09 5.40087e-09 7.73091 5.47488 0.417314 2.57479e-09 8.6229e-09 5.40089e-09 2.90554 0.965183 0.102902 2.5748e-09 8.62289e-09 5.40088e-09 10.2786 0.731801 0.0259123 2.57479e-09 8.6229e-09 5.40088e-09 2.22167 -0.733487 -0.20892 2.9242e-13 1.79297e-13 -4.96412e-13 -36.4413 54.1287 15.0041 28.1817 -39.3145 -82.712 2.13942 37.7576 -6.24934 -1.22263e-09 -7.90276e-10 -7.19157e-10 -2.11819e-09 -1.31491e-09 -1.20412e-09 -1.22263e-09 -7.90267e-10 -7.19148e-10 -7.73091 5.47488 -0.417314 -1.22262e-09 -7.90284e-10 -7.19157e-10 -2.90554 0.965183 -0.102902 -1.22264e-09 -7.90273e-10 -7.19156e-10 -10.2786 0.731801 -0.0259123 -1.22263e-09 -7.90272e-10 -7.19168e-10 -2.22167 -0.733487 0.20892 -2.03217e-16 0.0 -3.88251e-19 -13.2235 -57.6749 -9.03916 -175.493 73.489 176.707 0.241376 20.5673 1.76758 2.03217e-16 0.0 3.88251e-19 33.4266 -53.7409 6.94764 171.927 82.966 -174.151 0.0939009 14.336 -9.41401
-95.0629 150.38 -14.2975 -22.8766 -21.1715 331.597 5.81787 55.2857 22.3266 -8.61219 -1.97908 6.34314 21.8906 31.503 -8.58377 -4.89084 -3.14523 -9.23796 -0.0 0.0 0.0 -0.0 0.0 0.0 1.3706e-13 5.15434e-14 -6.24575e-13 12.542 -43.3226 -7.04965 -28.4313 -35.3991 76.0113 -0.964957 -26.7369 -4.05971 1.64414e-09 7.73702e-09 4.6594e-09 2.74903e-09 1.33846e-08 8.07321e-09 1.64415e-09 7.73703e-09 4.65939e-09 7.73091 5.47488 0.417314 1.64414e-09 7.73702e-09 4.6594e-09 2.90554 0.965183 0.102902 1.64415e-09 7.73702e-09 4.65939e-09 10.2786 0.731801 0.0259123 1.64414e-09 7.73702e-09 4.65939e-09 2.22167 -0.733487 -0.20892 1.36969e-13 5.15255e-14 -6.24823e-13 -34.639 54.7065 13.8207 28.2715 -38.5555 -81.4057 2.14135 37.7728 -6.25266 -5.18259e-09 5.3371e-09 -5.33619e-10 -8.95176e-09 9.52285e-09 -7.69288e-10 -5.1826e-09 5.33712e-09 -5.33607e-10 -7.73091 5.47488 -0.417314 -5.18259e-09 5.3371e-09 -5.33619e-10 -2.90554 0.965183 -0.102902 -5.18259e-09 5.33711e-09 -5.33619e-10 -10.2786 0.731801 -0.0259123 -5.18259e-09 5.33711e-09 -5.33631e-10 -2.22167 -0.733487 0.20892 -2.03217e-16 0.0 -3.88251e-19 -13.6995 -58.1291 -9.5264 -175.582 73.0745 176.815 0.180495 21.0045 2.11127 2.03217e-16 0.0 3.88251e-19 34.3894 -54.2016 8.08803 172.008 82.8841 -174.232 0.117044 14.3939 -9.60104
-94.7914 150.491 -14.024 -21.4863 -19.9982 330.528 6.46612 55.491 21.5607 -8.44772 -1.9477 6.24371 21.5109 31.7944 -8.61646 -4.66154 -3.66153 -9.28634 -0.0 0.0 0.0 -0.0 0.0 0.0 3.50074e-14 -2.22551e-14 -6.2652e-13 12.3969 -43.526 -6.76734 -28.4325 -35.4405 76.0757 -0.951553 -26.5643 -4.02939 1.00109e-09 6.60059e-09 3.84446e-09 1.65476e-09 1.14099e-08 6.6541e-09 1.0011e-09 6.6006e-09 3.84445e-09 7.73091 5.47488 0.417314 1.00109e-09 6.60059e-09 3.84446e-09 2.90554 0.965183 0.102902 1.0011e-09 6.60059e-09 3.84445e-09 10.2786 0.731801 0.0259123 1.00109e-09 6.60059e-09 3.84444e-09 2.22167 -0.733487 -0.20892 3.49175e-14 -2.22736e-14 -6.26768e-13 -32.7913 55.3709 12.5334 28.3522 -37.7622 -79.9976 2.159 37.9031 -6.2819 -6.93703e-09 8.30194e-09 -4.24575e-10 -1.19803e-08 1.47669e-08 -5.30454e-10 -6.93703e-09 8.30196e-09 -4.24563e-10 -7.73091 5.47488 -0.417314 -6.93702e-09 8.30195e-09 -4.24575e-10 -2.90554 0.965183 -0.102902 -6.93703e-09 8.30195e-09 -4.24575e-10 -10.2786 0.731801 -0.0259123 -6.93702e-09 8.30195e-09 -4.24588e-10 -2.22167 -0.733487 0.20892 -2.03217e-16 0.0 -3.88251e-19 -13.9989 -58.5263 -9.87796 -175.657 72.7026 176.904 0.13064 21.3474 2.37895 2.03217e-16 0.0 3.88251e-19 35.4488 -54.6184 9.27543 172.07 82.8196 -174.294 0.140489 14.4382 -9.81086
-94.6977 150.566 -13.9269 -21.0111 -19.3114 329.998 7.18789 55.7026 20.8158 -8.35078 -1.90372 6.16021 21.3871 31.5202 -8.57858 -4.99714 -3.28574 -9.34527 -0.0 0.0 0.0 -0.0 0.0 0.0 1.28721e-14 -1.48044e-14 -4.1578e-13 12.2046 -43.9081 -6.79412 -28.435 -35.5952 76.3244 -0.961869 -26.6956 -4.05251 7.88116e-10 4.94884e-09 2.84245e-09 1.30704e-09 8.55631e-09 4.92124e-09 7.88123e-10 4.94884e-09 2.84245e-09 7.73091 5.47488 0.417314 7.88117e-10 4.94884e-09 2.84246e-09 2.90554 0.965183 0.102902 7.88125e-10 4.94884e-09 2.84245e-09 10.2786 0.731801 0.0259123 7.88112e-10 4.94884e-09 2.84245e-09 2.22167 -0.733487 -0.20892 1.2788e-14 -1.48154e-14 -4.16028e-13 -30.8743 56.1929 11.1435 28.4216 -36.8864 -78.423 2.21514 38.306 -6.3735 -5.12461e-09 6.20961e-09 -4.48855e-10 -8.85583e-09 1.10684e-08 -6.25252e-10 -5.12462e-09 6.20962e-09 -4.48845e-10 -7.73091 5.47488 -0.417314 -5.12461e-09 6.20962e-09 -4.48857e-10 -2.90554 0.965183 -0.102902 -5.12462e-09 6.20962e-09 -4.48856e-10 -10.2786 0.731801 -0.0259123 -5.12461e-09 6.20962e-09 -4.48868e-10 -2.22167 -0.733487 0.20892 -2.03217e-16 0.0 -3.88251e-19 -13.9412 -58.8482 -9.98477 -175.714 72.3955 176.968 0.104058 21.5396 2.5258 2.03217e-16 0.0 3.88251e-19 36.7004 -54.9702 10.5373 172.103 82.7856 -174.326 0.166567 14.4608 -10.0795
-94.6735 150.609 -13.8587 -21.0013 -18.7121 329.618 7.97645 55.9221 20.0827 -8.30085 -1.85056 6.08934 21.429 30.8896 -8.49799 -5.69951 -2.37245 -9.41379 -0.0 0.0 0.0 -0.0 0.0 0.0 3.20972e-14 3.737e-14 -6.63257e-14 11.9822 -44.4172 -7.01379 -28.4355 -35.8187 76.6925 -0.987364 -27.0151 -4.10904 7.93446e-10 2.85408e-09 1.63633e-09 1.34047e-09 4.9439e-09 2.84082e-09 7.93452e-10 2.85408e-09 1.63633e-09 7.73091 5.47488 0.417314 7.93446e-10 2.85408e-09 1.63634e-09 2.90554 0.965183 0.102902 7.93451e-10 2.85408e-09 1.63633e-09 10.2786 0.731801 0.0259123 7.93442e-10 2.85408e-09 1.63634e-09 2.22167 -0.733487 -0.20892 3.20222e-14 3.73723e-14 -6.65742e-14 -28.8612 57.1689 9.61841 28.4539 -35.9045 -76.7406 2.30468 38.9248 -6.51689 -1.15187e-09 1.11322e-09 -5.53616e-10 -2.00502e-09 2.05892e-09 -9.21543e-10 -1.15188e-09 1.11323e-09 -5.53609e-10 -7.73091 5.47488 -0.417314 -1.15187e-09 1.11323e-09 -5.5362e-10 -2.90554 0.965183 -0.102902 -1.15187e-09 1.11323e-09 -5.53618e-10 -10.2786 0.731801 -0.0259123 -1.15186e-09 1.11323e-09 -5.53628e-10 -2.22167 -0.733487 0.20892 -2.03217e-16 0.0 -3.88251e-19 -13.5998 -59.1387 -9.89939 -175.761 72.1267 177.018 0.0935603 21.6451 2.59479 2.03217e-16 0.0 3.88251e-19 38.1647 -55.288 11.9144 172.134 82.7547 -174.358 0.196358 14.4698 -10.4107
-94.7554 150.647 -13.7853 -21.4305 -18.4015 329.351 8.70144 56.1456 19.3607 -8.24494 -1.78027 6.01445 21.4348 30.2086 -8.39976 -6.29006 -1.38537 -9.47518 -0.0 0.0 0.0 -0.0 0.0 0.0 6.19308e-14 1.00279e-13 2.8333e-13 11.7801 -44.9314 -7.24138 -28.4326 -36.0361 77.0612 -1.01214 -27.318 -4.16304 8.55335e-10 8.57786e-10 4.94506e-10 1.47028e-09 1.50267e-09 8.72336e-10 8.5534e-10 8.57791e-10 4.94502e-10 7.73091 5.47488 0.417314 8.55334e-10 8.57787e-10 4.9451e-10 2.90554 0.965183 0.102902 8.55337e-10 8.57786e-10 4.94508e-10 10.2786 0.731801 0.0259123 8.55331e-10 8.57788e-10 4.94516e-10 2.22167 -0.733487 -0.20892 6.18644e-14 1.00294e-13 2.83082e-13 -26.7441 58.1292 7.91164 28.4369 -34.8919 -75.0981 2.38323 39.447 -6.64041 2.97312e-09 -4.26414e-09 -6.50624e-10 5.10926e-09 -7.4502e-09 -1.20876e-09 2.97311e-09 -4.26414e-09 -6.50622e-10 -7.73091 5.47488 -0.417314 2.97312e-09 -4.26414e-09 -6.5063e-10 -2.90554 0.965183 -0.102902 2.97311e-09 -4.26414e-09 -6.50627e-10 -10.2786 0.731801 -0.0259123 2.97313e-09 -4.26414e-09 -6.50634e-10 -2.22167 -0.733487 0.20892 -2.03217e-16 0.0 -3.88251e-19 -13.3 -59.4098 -9.80567 -175.807 71.866 177.067 0.0858999 21.744 2.65122 2.03217e-16 0.0 3.88251e-19 39.6035 -55.5908 13.3078 172.169 82.7181 -174.394 0.223437 14.4776 -10.7203
